:FULLY-SPECIFIED
:FORCE-ALL-JOINTS-BE-3DOF
:DEGREES
259
root 9.56153 16.5075 -0.34163 8.45458 -3.95757 -0.330871
lfemur -32.3967 8.24383 -25.5408
ltibia 36.0674 0 0
lfoot -11.3439 5.15129 0
ltoes -1.90127 0 0
rfemur -3.23211 0.85106 18.6932
rtibia 35.6312 0 0
rfoot 0.611965 -0.183319 0
rtoes -17.8952 0 0
lowerback -6.05067 0.476371 -1.76509
upperback -2.20929 0.704614 1.85174
thorax 1.17046 0.343225 2.91946
lowerneck -19.4424 -5.23587 -13.2266
upperneck 19.0409 -6.51409 13.6044
head 10.2311 -2.50132 6.1345
lclavicle -4.60252e-15 -1.14422e-15 0
lhumerus -36.0739 -8.73371 87.6427
lradius 21.7236 0 0
lwrist -4.22132 0 0
lhand -9.93637 -23.1428 0
lfingers 7.12502 0 0
lthumb 16.0423 6.17153 0
rclavicle -4.60252e-15 -1.14422e-15 0
rhumerus -46.8756 8.05005 -85.6486
rradius 40.6951 0 0
rwrist -22.2855 0 0
rhand -29.316 -22.1862 0
rfingers 7.12502 0 0
rthumb -2.65688 -52.1493 0
260
root 9.57869 16.52 -0.211736 8.3456 -3.7995 -0.20845
lfemur -31.482 8.13454 -25.6763
ltibia 35.5648 0 0
lfoot -11.6158 5.13768 0
ltoes -2.00417 0 0
rfemur -4.35177 0.807794 18.6048
rtibia 36.0342 0 0
rfoot -0.133882 -0.605512 0
rtoes -18.1053 0 0
lowerback -6.02278 0.34492 -1.85585
upperback -2.1376 0.53384 1.86048
thorax 1.24336 0.255432 2.96676
lowerneck -19.5231 -5.18456 -13.166
upperneck 19.1712 -6.44217 13.5227
head 10.2776 -2.47039 6.10959
lclavicle -3.36421e-15 -7.75746e-16 0
lhumerus -35.2669 -9.0646 87.594
lradius 21.8708 0 0
lwrist -3.96459 0 0
lhand -10.1509 -23.1905 0
lfingers 7.12502 0 0
lthumb 15.8355 6.13846 0
rclavicle -3.36421e-15 -7.75746e-16 0
rhumerus -46.8812 8.03393 -85.5526
rradius 40.7063 0 0
rwrist -22.3152 0 0
rhand -29.3297 -22.1579 0
rfingers 7.12502 0 0
rthumb -2.67009 -52.1208 0
261
root 9.59585 16.5324 -0.081842 8.23662 -3.64143 -0.0860298
lfemur -30.5672 8.02525 -25.8118
ltibia 35.0622 0 0
lfoot -11.8876 5.12407 0
ltoes -2.10708 0 0
rfemur -5.47142 0.764528 18.5164
rtibia 36.4373 0 0
rfoot -0.879729 -1.0277 0
rtoes -18.3153 0 0
lowerback -5.9949 0.21347 -1.94661
upperback -2.0659 0.363065 1.86921
thorax 1.31626 0.167639 3.01407
lowerneck -19.6038 -5.13325 -13.1055
upperneck 19.3015 -6.37025 13.4409
head 10.324 -2.43946 6.08468
lclavicle -2.1259e-15 -4.07267e-16 0
lhumerus -34.4599 -9.39549 87.5453
lradius 22.0181 0 0
lwrist -3.70786 0 0
lhand -10.3655 -23.2382 0
lfingers 7.12502 0 0
lthumb 15.6288 6.1054 0
rclavicle -2.1259e-15 -4.07267e-16 0
rhumerus -46.8868 8.01781 -85.4566
rradius 40.7175 0 0
rwrist -22.3448 0 0
rhand -29.3434 -22.1296 0
rfingers 7.12502 0 0
rthumb -2.68331 -52.0923 0
262
root 9.61301 16.5448 0.0480522 8.12764 -3.48336 0.036391
lfemur -29.6524 7.91595 -25.9473
ltibia 34.5595 0 0
lfoot -12.1595 5.11047 0
ltoes -2.20999 0 0
rfemur -6.59107 0.721262 18.428
rtibia 36.8404 0 0
rfoot -1.62558 -1.4499 0
rtoes -18.5253 0 0
lowerback -5.96701 0.082019 -2.03737
upperback -1.9942 0.19229 1.87795
thorax 1.38916 0.0798461 3.06137
lowerneck -19.6846 -5.08193 -13.045
upperneck 19.4318 -6.29833 13.3592
head 10.3704 -2.40853 6.05977
lclavicle -8.8758e-16 -3.87883e-17 0
lhumerus -33.6529 -9.72638 87.4966
lradius 22.1653 0 0
lwrist -3.45113 0 0
lhand -10.58 -23.286 0
lfingers 7.12502 0 0
lthumb 15.4221 6.07234 0
rclavicle -8.8758e-16 -3.87883e-17 0
rhumerus -46.8924 8.00169 -85.3607
rradius 40.7286 0 0
rwrist -22.3745 0 0
rhand -29.357 -22.1013 0
rfingers 7.12502 0 0
rthumb -2.69652 -52.0638 0
263
root 9.63018 16.5572 0.177946 8.01865 -3.32528 0.158812
lfemur -28.7376 7.80666 -26.0828
ltibia 34.0569 0 0
lfoot -12.4314 5.09686 0
ltoes -2.31289 0 0
rfemur -7.71072 0.677996 18.3396
rtibia 37.2434 0 0
rfoot -2.37142 -1.87209 0
rtoes -18.7353 0 0
lowerback -5.93913 -0.0494317 -2.12812
upperback -1.9225 0.0215159 1.88668
thorax 1.46206 -0.00794683 3.10867
lowerneck -19.7653 -5.03062 -12.9844
upperneck 19.5622 -6.22642 13.2774
head 10.4169 -2.37759 6.03486
lclavicle 3.50734e-16 3.2969e-16 0
lhumerus -32.8459 -10.0573 87.4479
lradius 22.3126 0 0
lwrist -3.19441 0 0
lhand -10.7946 -23.3337 0
lfingers 7.12502 0 0
lthumb 15.2154 6.03928 0
rclavicle 3.50734e-16 3.2969e-16 0
rhumerus -46.8979 7.98557 -85.2647
rradius 40.7398 0 0
rwrist -22.4041 0 0
rhand -29.3707 -22.0729 0
rfingers 7.12502 0 0
rthumb -2.70973 -52.0353 0
264
root 9.64734 16.5696 0.30784 7.90967 -3.16721 0.281232
lfemur -27.8229 7.69737 -26.2183
ltibia 33.5542 0 0
lfoot -12.7032 5.08325 0
ltoes -2.4158 0 0
rfemur -8.83037 0.63473 18.2512
rtibia 37.6465 0 0
rfoot -3.11727 -2.29428 0
rtoes -18.9453 0 0
lowerback -5.91124 -0.180882 -2.21888
upperback -1.85081 -0.149259 1.89542
thorax 1.53496 -0.0957398 3.15598
lowerneck -19.846 -4.97931 -12.9239
upperneck 19.6925 -6.1545 13.1957
head 10.4633 -2.34666 6.00995
lclavicle 1.58905e-15 6.98169e-16 0
lhumerus -32.0389 -10.3882 87.3992
lradius 22.4598 0 0
lwrist -2.93768 0 0
lhand -11.0091 -23.3815 0
lfingers 7.12502 0 0
lthumb 15.0087 6.00622 0
rclavicle 1.58905e-15 6.98169e-16 0
rhumerus -46.9035 7.96945 -85.1688
rradius 40.751 0 0
rwrist -22.4338 0 0
rhand -29.3844 -22.0446 0
rfingers 7.12502 0 0
rthumb -2.72295 -52.0068 0
265
root 9.6645 16.582 0.437735 7.80069 -3.00914 0.403653
lfemur -26.9081 7.58808 -26.3538
ltibia 33.0516 0 0
lfoot -12.9751 5.06964 0
ltoes -2.5187 0 0
rfemur -9.95002 0.591465 18.1628
rtibia 38.0495 0 0
rfoot -3.86312 -2.71647 0
rtoes -19.1553 0 0
lowerback -5.88336 -0.312333 -2.30964
upperback -1.77911 -0.320033 1.90415
thorax 1.60786 -0.183533 3.20328
lowerneck -19.9267 -4.928 -12.8633
upperneck 19.8228 -6.08258 13.114
head 10.5097 -2.31573 5.98504
lclavicle 2.82736e-15 1.06665e-15 0
lhumerus -31.2319 -10.719 87.3506
lradius 22.6071 0 0
lwrist -2.68095 0 0
lhand -11.2237 -23.4292 0
lfingers 7.12502 0 0
lthumb 14.8019 5.97315 0
rclavicle 2.82736e-15 1.06665e-15 0
rhumerus -46.9091 7.95334 -85.0728
rradius 40.7621 0 0
rwrist -22.4634 0 0
rhand -29.3981 -22.0163 0
rfingers 7.12502 0 0
rthumb -2.73616 -51.9783 0
